<?xml version="1.0" encoding="utf-8"?>
<!-- Generator: Adobe Illustrator 22.1.0, SVG Export Plug-In . SVG Version: 6.00 Build 0)  -->
<svg version="1.1" id="Capa_1" xmlns="http://www.w3.org/2000/svg" xmlns:xlink="http://www.w3.org/1999/xlink" x="0px" y="0px"
	 viewBox="0 0 755 555" style="enable-background:new 0 0 755 555;" xml:space="preserve">
<style type="text/css">
	.st0{fill:#E5AA4A;}
	.st1{fill:#2C3340;}
</style>
<g>
	<g>
		<g>
			<path class="st0" d="M364.7,115.2c-6.8-3.5-14.7-0.9-18.2,5.8c-3.5,6.8-0.9,14.7,5.8,18.2c6.7,3.5,14.7,0.9,18.2-5.8
				C374,126.6,371.5,118.7,364.7,115.2z"/>
			<path class="st0" d="M377.5,2.5c-130.4,0-236.1,105.7-236.1,236.1c0,12.8,1,25.4,3,37.6c0.1,0.1,0.3,0.1,0.4,0.2
				c1.4,0.7,2.7,1.6,3.9,2.5c3.2-0.5,6.6-0.8,10.4-0.8c5,0,10.7,0.5,16.2,2.3c3.8,0.4,7.5,1.4,11,3.2c2.8,1.4,5.3,3.3,7.5,5.4
				c13.5-9.9,31.1-12.1,46.6-5.7c11.9-23.1,33.2-39.7,58.4-45.8c1-0.2,2-0.1,2.9,0.3c0.9,0.4,1.6,1.2,2,2.1
				c9.8,24,8.7,51.1-3.1,74.2c7.5,4.7,13.4,11.2,17.3,18.8c7.1,2.1,12.7,5.8,16.6,11c1.1-0.9,2.2-1.8,3.2-2.6
				c11.5-8.4,26.9-12.4,47.1-12.4c12,0,24.4,2.6,36.7,7.8v-19.1c0-4.3,0.2-7.5,0.5-10.1c0.5-3.8,1.7-7.7,3.6-11.8
				c0.1-0.3,0.2-0.5,0.4-0.8c5.8-11.3,17.7-17,35.2-17c12,0,21.1,2.8,27.9,8.5c4.8,4,10.6,11.4,11.3,23.9c0.2,2,0.3,4.4,0.3,7.4
				v22.7c6.1-3.4,12-5,17.9-5c15.3,0,25.3,12.4,28.5,16.4c0.3,0.4,0.6,0.7,0.9,1.1c0.9-0.9,1.8-1.8,2.8-2.7
				c12.5-11.6,27.6-18.6,44.8-20.9c11.7-28,18.2-58.8,18.2-91C613.6,108.2,507.9,2.5,377.5,2.5z M388.2,164.2l5.5,4.7
				c3.2,2.9,4.2,8.5,2.3,12.2l-36.1,70.3c-1.9,3.8-6.1,4.5-9.3,1.5l-23.3-21.1c-3.2-2.9-4.3-8.2-2.4-12l7.2-14
				c-5.3,1.7-10.3,2.9-15.7,3.6c-2.3-4.7-4.5-9.6-6.3-14.9l-7.2,14c-1.9,3.7-6.8,6-11.1,5l-30.7-6.6c-4.3-0.9-6.1-4.7-4.2-8.5
				l36.1-70.3c1.9-3.8,7-6.2,11.2-5.3l7,1.7c-1.1,5.8-1.6,11.8-1.9,18c1.7-5.8,3.8-11.6,6.2-17c1-2,2.1-4,3.2-6.3
				c15.8-30.8,43.6-50.6,71.7-54.2c13.4,24.9,13.8,59.2-1.9,90c-1.2,2.3-2.4,4.1-3.5,6.1c-2.9,5.1-6.3,10.4-10.2,15
				C379.9,172.6,384.2,168.5,388.2,164.2z M427.6,226.8l-7.3,3.4l1.1-8l-3.4-7.3l8,1.1l7.3-3.3l-1.1,7.9l3.4,7.3L427.6,226.8z
				 M483.6,179l-5.3,14.3l-9.2-12.2l-14.3-5.3l12.2-9.2l5.3-14.3l9.2,12.2l14.3,5.3L483.6,179z M555.1,146l-2.8,7.5l-4.8-6.4
				l-7.5-2.8l6.4-4.8l2.8-7.5l4.9,6.4l7.5,2.8L555.1,146z"/>
			<path class="st0" d="M348.7,146.5c-4-2.1-8.9-0.5-10.8,3.3c-2.1,4-0.5,8.9,3.5,11c4,2.1,8.9,0.5,11-3.5
				C354.3,153.5,352.7,148.5,348.7,146.5z"/>
		</g>
		<g>
			<path class="st1" d="M118.2,339.5c3.7,7.6,5.6,16,5.6,25.2c0,9.3-1.9,17.6-5.6,25.1c-3.7,7.5-8.5,13.4-14.3,17.9
				c-11.8,9.1-24.1,13.7-36.8,13.7H40.4v24.2c0,3.3-0.1,5.7-0.3,7.4c-0.2,1.6-0.9,3.5-2,5.7c-2,3.8-7.6,5.8-16.7,5.8
				c-10,0-15.8-2.6-17.5-7.9c-0.9-2.4-1.3-6.1-1.3-11.1V326.7c0-3.3,0.1-5.7,0.3-7.4c0.2-1.6,0.9-3.5,2-5.7c2-3.8,7.6-5.8,16.7-5.8
				h45.8c12.5,0,24.7,4.6,36.6,13.7C109.7,326,114.5,332,118.2,339.5z M79.9,378.9c4.1-3.1,6.2-7.8,6.2-14.1c0-6.3-2.1-11-6.2-14.2
				c-4.1-3.2-8.4-4.8-12.8-4.8H40.4v37.9h26.9C71.6,383.6,75.8,382,79.9,378.9z"/>
			<path class="st1" d="M137.7,317.7c0-3.3,0.1-5.7,0.3-7.4c0.2-1.6,0.8-3.5,1.8-5.7c2-3.8,7.6-5.8,16.7-5.8
				c8.7,0,14.1,1.9,16.3,5.8c1.1,2.1,1.8,4.1,2,5.8c0.2,1.7,0.3,4.2,0.3,7.5v99c0,5.1,0.4,8.4,1.3,9.7c0.9,1.4,2.7,2,5.7,2
				c2.9,0,4.9,0.1,5.9,0.3c1,0.2,2.2,0.8,3.6,1.8c2.9,1.9,4.3,6.9,4.3,15.2c0,9-1.4,14.5-4.3,16.5c-3.7,2.6-12.5,3-26.5,1.3
				c-11-1.4-18.1-5.1-21.4-10.9c-4-7-6-18.1-6-33.4V317.7z"/>
			<path class="st1" d="M255.5,464.2c-14.4,0-26.3-5.5-35.8-16.4c-9.5-10.9-14.2-24.2-14.2-39.9v-37.4c0-3.4,0.1-5.9,0.3-7.5
				c0.2-1.6,0.8-3.4,1.8-5.6c2-3.8,7.6-5.8,16.7-5.8c10,0,15.8,2.7,17.5,8.1c0.9,2.3,1.3,5.9,1.3,10.9v37.4c0,5.8,1.7,10.4,5,13.7
				c3.3,3.3,7.8,4.9,13.5,4.9c5.6,0,10.2-1.7,13.7-5.1c3.5-3.4,5.2-7.9,5.2-13.5v-37.9c0-3.3,0.1-5.7,0.3-7.4c0.2-1.6,0.9-3.5,2-5.7
				c1.9-3.7,7.3-5.6,16.5-5.6c9,0,14.5,1.9,16.5,5.8c1,2.1,1.6,4,1.8,5.7c0.2,1.6,0.3,4.1,0.3,7.4v75.7c0,3.1-0.1,5.5-0.3,7.2
				c-0.2,1.6-0.9,3.5-2,5.5c-2.1,3.7-7.6,5.6-16.5,5.6c-8.7,0-14-1.7-16-5.1c-1.4-2.4-2.1-5.3-2.1-8.8c-0.6,1-1.9,2.4-3.8,4.3
				c-2,1.9-3.9,3.4-5.8,4.7C266.5,462.7,261.2,464.2,255.5,464.2z"/>
			<path class="st1" d="M335.9,454.6c-2.7-1.7-4.1-4.4-4.1-8.1c0-3.7,2.7-9.3,8.1-16.9c1.6-2.4,4.1-3.6,7.6-3.6
				c3.5,0,8.2,1.7,14.2,5.2c6,3.5,11.4,5.2,16.3,5.2c8.7,0,13-1.7,13-5.1c0-2.7-4.8-4.7-14.3-6c-9-1.3-17.9-4.6-26.7-10.1
				c-4.1-2.6-7.6-6.6-10.3-12.1c-2.7-5.5-4.1-12-4.1-19.6c0-22.5,15.5-33.8,46.4-33.8c10.1,0,20.5,2.4,31.2,7.3
				c5,2.3,7.5,5.1,7.5,8.6c0,3.4-1.6,7.6-4.7,12.6c-3.1,5-6.3,7.5-9.6,7.5c-1.7,0-4.9-1.1-9.5-3.2c-4.6-2.1-9.7-3.2-15.1-3.2
				c-8.4,0-12.6,1.6-12.6,4.7c0,4.3,4.8,7.1,14.5,8.3c9.4,1,18.5,3.7,27.4,8.1c4.1,2,7.6,5.5,10.4,10.4c2.8,4.9,4.2,11.1,4.2,18.5
				c0,7.4-1.4,13.7-4.2,18.9c-2.8,5.2-6.7,9.1-11.7,11.7c-9.1,4.4-20.6,6.6-34.3,6.6C361.8,466.6,348.6,462.6,335.9,454.6z"/>
			<path class="st1" d="M505.9,408.2l28.4,23.5c3.6,3,5.8,5.3,6.7,6.8c0.9,1.6,1.4,3.1,1.4,4.5c0,3.4-2.2,8.1-6.6,13.9
				c-4.8,6-9.1,9-12.8,9c-3.1,0-7.5-2.1-13-6.2l-2.1-1.5c-3.3-2.7-8.3-7.4-15.2-14.2c-6.8-6.8-12.1-11.6-15.6-14.4V446
				c0,3.3-0.1,5.7-0.3,7.4c-0.2,1.6-0.9,3.5-2,5.7c-1.9,3.7-7.3,5.6-16.5,5.6c-9,0-14.5-1.9-16.5-5.8c-1-2.1-1.6-4-1.8-5.7
				c-0.2-1.6-0.3-4.1-0.3-7.4V317.7c0-3.3,0.1-5.7,0.3-7.4c0.2-1.6,0.8-3.5,1.8-5.7c2-3.8,7.6-5.8,16.7-5.8c6.8,0,11.7,1.2,14.5,3.6
				c2.4,2,3.7,5.1,3.8,9.4c0.1,1.3,0.2,3.3,0.2,6v67.8c2.6-2.1,6.4-5.8,11.7-10.9c5.2-5.1,9.1-8.8,11.7-10.9l2.6-1.7
				c5-3.8,9.3-5.8,12.8-5.8c3.6,0,7.7,2.9,12.3,8.7c4.6,5.8,7,10.3,7,13.6c0,3.3-2.6,7.1-7.9,11.5L505.9,408.2z"/>
			<path class="st1" d="M656.5,394.8c0,8.8-2.2,15.3-6.5,19.5c-4.4,4.2-9.2,6.3-14.4,6.3h-50.7c0,4,2.4,7.3,7.1,10.1
				c4.7,2.7,9.4,4.1,14.1,4.1c8.3,0,14.8-0.9,19.5-2.6l2.4-0.9c3.4-1.6,6.3-2.4,8.6-2.4c4.6,0,8.5,3.2,11.8,9.6
				c1.9,3.8,2.8,7.1,2.8,9.8c0,12.7-15.2,19-45.6,19c-10.6,0-19.9-1.8-28.1-5.5c-8.2-3.6-14.6-8.4-19.1-14.4
				c-9-11.5-13.5-24.5-13.5-38.7c0-18,5.8-32.3,17.4-43.1c11.6-10.8,26.1-16.1,43.5-16.1c19.8,0,34.4,7,43.6,21
				C654.1,378,656.5,386.1,656.5,394.8z M611.4,401.1c5.4,0,8.1-2.3,8.1-6.8c0-3.3-1.2-5.9-3.7-7.9c-2.5-2-6.1-3-10.7-3
				c-4.6,0-9.2,1.9-13.8,5.7c-4.6,3.8-6.8,7.8-6.8,12.1H611.4z"/>
			<path class="st1" d="M733.7,389.8l-13.9-0.9v29.5c0,3.8,0.6,6.6,1.8,8.3c1.2,1.7,3.5,2.6,6.8,2.6c3.3,0,5.9,0.1,7.7,0.3
				c1.8,0.2,3.7,0.9,5.7,2c3.3,1.9,4.9,6.6,4.9,14.3c0,9-2,14.5-6,16.5c-2.1,1-4,1.6-5.7,1.8c-1.6,0.2-4,0.3-7.2,0.3
				c-14.8,0-26.1-3.3-33.8-10.1c-7.7-6.7-11.5-18-11.5-34v-31.7c-2.7,0.4-5.6,0.6-8.8,0.6c-3.1,0-5.7-1.2-7.8-3.6
				c-2.1-2.4-3.1-6.6-3.1-12.4c0-5.8,0.4-10.1,1.1-12.7c0.7-2.6,1.7-4.5,3-5.7c2.3-1.9,5.1-2.8,8.6-2.8l7.1,0.9v-22
				c0-3.3,0.1-5.7,0.3-7.3c0.2-1.6,0.9-3.3,2-5.1c1.9-3.6,7.3-5.3,16.5-5.3c9.7,0,15.5,2.6,17.3,7.9c0.7,2.3,1.1,5.9,1.1,10.9v21
				c6.3-0.6,11-0.9,14.2-0.9c3.2,0,5.6,0.1,7.3,0.3c1.6,0.2,3.5,0.9,5.7,2c3.7,1.9,5.6,7.3,5.6,16.5c0,9-1.9,14.5-5.8,16.5
				c-2.1,1-4,1.6-5.7,1.8C739.4,389.7,737,389.8,733.7,389.8z"/>
		</g>
	</g>
	<g>
		<path class="st1" d="M34.8,523.2c0,4.6-0.5,8.6-1.4,12.1c-0.9,3.5-2.3,6.4-4.1,8.7c-1.8,2.3-3.9,4.1-6.4,5.3
			c-2.5,1.2-5.3,1.8-8.3,1.8h-12v-56h12.1c3.1,0,5.8,0.6,8.3,1.8c2.5,1.2,4.6,3,6.4,5.3c1.8,2.4,3.1,5.3,4.1,8.8
			C34.4,514.6,34.8,518.7,34.8,523.2z M29.4,523.2c0-4-0.4-7.4-1.1-10.4c-0.8-2.9-1.8-5.4-3.2-7.3c-1.3-1.9-2.9-3.3-4.7-4.3
			c-1.8-1-3.8-1.4-5.9-1.4H8v46.5h6.5c2.1,0,4.1-0.5,5.9-1.4c1.8-1,3.4-2.4,4.7-4.3c1.3-1.9,2.4-4.3,3.2-7.2
			C29,530.6,29.4,527.2,29.4,523.2z"/>
		<path class="st1" d="M53.2,551.2v-56h22.5v4.9H58.6v19.6h16.1v4.7H58.6v21.7h17.9v5H53.2z"/>
		<path class="st1" d="M118.4,536.8c0,2.5-0.4,4.7-1.1,6.6c-0.7,1.9-1.8,3.6-3,4.9c-1.3,1.3-2.8,2.4-4.5,3.1
			c-1.7,0.7-3.6,1.1-5.5,1.1c-2.8,0-5.5-0.6-7.9-1.8c-2.4-1.2-4.3-2.8-5.8-4.8l3.4-3.9c1.2,1.7,2.7,3.1,4.6,4
			c1.8,0.9,3.7,1.4,5.6,1.4c2.5,0,4.7-0.9,6.4-2.7c1.7-1.8,2.6-4.3,2.6-7.7c0-1.6-0.3-3-0.8-4.2c-0.5-1.2-1.2-2.3-2.1-3.2
			c-0.9-0.9-1.9-1.8-3-2.5c-1.1-0.7-2.3-1.4-3.6-2.1c-1.5-0.7-3-1.6-4.3-2.5c-1.4-0.9-2.6-2-3.6-3.2c-1-1.2-1.9-2.6-2.5-4.3
			c-0.6-1.7-0.9-3.6-0.9-5.8c0-2.6,0.4-4.8,1.2-6.8c0.8-1.9,1.9-3.5,3.2-4.8c1.3-1.3,2.9-2.3,4.5-2.9c1.7-0.6,3.5-0.9,5.3-0.9
			c2.5,0,4.8,0.4,6.8,1.3c2,0.9,3.7,2.2,5.1,4.1l-3.4,3.9c-1.1-1.5-2.3-2.6-3.7-3.3c-1.4-0.7-3-1-4.7-1c-1.1,0-2.2,0.2-3.3,0.6
			c-1.1,0.4-2,1-2.9,1.9c-0.8,0.8-1.5,1.9-2.1,3.2c-0.5,1.3-0.8,2.9-0.8,4.7c0,1.6,0.2,3,0.7,4.1c0.5,1.2,1.1,2.2,1.9,3.1
			c0.8,0.9,1.8,1.7,2.8,2.4c1.1,0.7,2.2,1.3,3.4,1.9c1.5,0.7,2.9,1.6,4.4,2.5c1.4,0.9,2.8,2.1,3.9,3.3c1.2,1.3,2.1,2.7,2.8,4.4
			C118.1,532.6,118.4,534.6,118.4,536.8z"/>
		<path class="st1" d="M163.8,510.4c0,2.6-0.4,4.9-1.1,6.8c-0.8,2-1.8,3.6-3,4.9c-1.3,1.3-2.7,2.3-4.4,3c-1.7,0.7-3.4,1-5.2,1h-8.2
			v25h-5.5v-56h13.2c1.6,0,3.3,0.2,5,0.7c1.7,0.5,3.2,1.3,4.6,2.5c1.4,1.2,2.5,2.8,3.4,4.7C163.4,505,163.8,507.5,163.8,510.4z
			 M158.3,510.4c0-1.8-0.2-3.4-0.7-4.8c-0.5-1.3-1.1-2.4-2-3.3c-0.8-0.8-1.8-1.5-2.9-1.9c-1.1-0.4-2.3-0.6-3.5-0.6h-7.4v21.5h7.5
			c2.5,0,4.6-0.9,6.4-2.7C157.5,516.9,158.3,514.1,158.3,510.4z"/>
		<path class="st1" d="M180.6,551.2v-56h22.5v4.9H186v19.6h16.1v4.7H186v21.7H204v5H180.6z"/>
		<path class="st1" d="M246.7,551c-2.2,0.8-4.8,1.2-7.7,1.2c-3.1,0-5.9-0.7-8.4-2.1c-2.5-1.4-4.6-3.3-6.2-5.9
			c-1.7-2.5-3-5.6-3.9-9.2c-0.9-3.6-1.3-7.6-1.3-12c0-4.2,0.4-8,1.3-11.6c0.9-3.6,2.1-6.7,3.8-9.3c1.6-2.6,3.6-4.7,6-6.1
			c2.4-1.5,5.1-2.2,8.1-2.2c2.7,0,5.2,0.6,7.5,1.7c2.3,1.1,4.2,2.8,5.7,5.2l-3.6,3.6c-1.2-1.8-2.6-3.2-4.2-4.2
			c-1.6-0.9-3.3-1.4-5.2-1.4c-2.3,0-4.3,0.6-6,1.9c-1.7,1.3-3.1,3-4.2,5.3c-1.1,2.2-2,4.8-2.5,7.7c-0.6,2.9-0.8,6-0.8,9.4
			c0,3.5,0.3,6.7,0.9,9.6c0.6,3,1.5,5.5,2.6,7.6c1.2,2.1,2.7,3.8,4.4,5c1.8,1.2,3.8,1.8,6.1,1.8c1.7,0,3.2-0.2,4.5-0.6
			c1.3-0.4,2.5-1,3.4-1.8v-19h-8V521h13.4v26.7C250.7,549.1,248.9,550.1,246.7,551z"/>
		<path class="st1" d="M295.7,551.2l-3.4-14h-17.2l-3.6,14h-5.6l14.2-56h7.5l13.8,56H295.7z M284,500.2h-0.3l-7.7,32.6h15.7
			L284,500.2z"/>
		<path class="st1" d="M345.4,499.9v51.2h-5.5v-51.2h-10.8v-4.7h27v4.7H345.4z"/>
		<path class="st1" d="M401,539.7c-0.6,2.6-1.5,4.8-2.7,6.7c-1.2,1.9-2.9,3.4-4.9,4.5c-2.1,1.1-4.6,1.6-7.6,1.6s-5.5-0.5-7.5-1.6
			c-2-1.1-3.7-2.6-4.9-4.5c-1.2-1.9-2.1-4.1-2.6-6.7c-0.5-2.6-0.8-5.3-0.8-8.2v-36.4h5.5v35.7c0,2.1,0.1,4.1,0.4,6.1
			c0.3,2,0.8,3.8,1.6,5.3c0.8,1.6,1.8,2.8,3.2,3.8c1.3,0.9,3.1,1.4,5.3,1.4c2.1,0,3.8-0.5,5.2-1.4c1.4-0.9,2.4-2.2,3.2-3.8
			c0.8-1.6,1.3-3.3,1.6-5.3c0.3-2,0.4-4,0.4-6.1v-35.7h5.5v36.4C401.9,534.4,401.6,537.2,401,539.7z"/>
		<path class="st1" d="M444.5,551.2v-56H467v4.9h-17.2v19.6h16.1v4.7h-16.1v21.7h17.9v5H444.5z"/>
		<path class="st1" d="M523.6,551.2v-48.6h-0.2l-13.7,48.6h-5.1l-13.6-48.6h-0.2v48.6h-5.2v-56h8.2l13.4,47.3h0.3l13.2-47.3h8.5v56
			H523.6z"/>
		<path class="st1" d="M577.2,510.4c0,2.6-0.4,4.9-1.1,6.8c-0.8,2-1.8,3.6-3,4.9c-1.3,1.3-2.7,2.3-4.4,3c-1.7,0.7-3.4,1-5.2,1h-8.2
			v25h-5.5v-56H563c1.6,0,3.3,0.2,5,0.7c1.7,0.5,3.2,1.3,4.6,2.5c1.4,1.2,2.5,2.8,3.4,4.7C576.8,505,577.2,507.5,577.2,510.4z
			 M571.8,510.4c0-1.8-0.2-3.4-0.7-4.8c-0.5-1.3-1.1-2.4-2-3.3c-0.8-0.8-1.8-1.5-2.9-1.9c-1.1-0.4-2.3-0.6-3.5-0.6h-7.4v21.5h7.5
			c2.5,0,4.6-0.9,6.4-2.7C570.9,516.9,571.8,514.1,571.8,510.4z"/>
		<path class="st1" d="M616.8,551.2l-10.1-25.9h-7.2v25.9h-5.5v-56h13.4c1.8,0,3.6,0.3,5.3,0.8s3.2,1.3,4.6,2.5
			c1.3,1.2,2.4,2.7,3.2,4.6c0.8,1.9,1.2,4.2,1.2,7c0,2.4-0.3,4.4-0.9,6.1c-0.6,1.7-1.4,3.2-2.4,4.3c-1,1.2-2.1,2.1-3.2,2.7
			c-1.2,0.6-2.4,1-3.5,1.2l10.9,26.9H616.8z M616.5,510.2c0-2-0.3-3.7-0.8-5c-0.6-1.3-1.3-2.4-2.2-3.2c-0.9-0.8-2-1.3-3.2-1.7
			c-1.2-0.3-2.4-0.5-3.7-0.5h-7.1v21h7.4c3,0,5.4-0.9,7.1-2.8C615.7,516.2,616.5,513.6,616.5,510.2z"/>
		<path class="st1" d="M639.6,551.2v-56h22.5v4.9H645v19.6H661v4.7H645v21.7h17.9v5H639.6z"/>
		<path class="st1" d="M704.8,536.8c0,2.5-0.4,4.7-1.1,6.6c-0.7,1.9-1.8,3.6-3,4.9c-1.3,1.3-2.8,2.4-4.5,3.1
			c-1.7,0.7-3.6,1.1-5.5,1.1c-2.8,0-5.5-0.6-7.9-1.8c-2.4-1.2-4.3-2.8-5.8-4.8l3.4-3.9c1.2,1.7,2.7,3.1,4.6,4
			c1.8,0.9,3.7,1.4,5.6,1.4c2.5,0,4.7-0.9,6.4-2.7c1.7-1.8,2.6-4.3,2.6-7.7c0-1.6-0.3-3-0.8-4.2c-0.5-1.2-1.2-2.3-2.1-3.2
			c-0.9-0.9-1.9-1.8-3-2.5c-1.1-0.7-2.3-1.4-3.6-2.1c-1.5-0.7-3-1.6-4.3-2.5c-1.4-0.9-2.6-2-3.6-3.2c-1-1.2-1.9-2.6-2.5-4.3
			c-0.6-1.7-0.9-3.6-0.9-5.8c0-2.6,0.4-4.8,1.2-6.8c0.8-1.9,1.9-3.5,3.2-4.8c1.3-1.3,2.9-2.3,4.5-2.9c1.7-0.6,3.5-0.9,5.3-0.9
			c2.5,0,4.8,0.4,6.8,1.3c2,0.9,3.7,2.2,5.1,4.1l-3.4,3.9c-1.1-1.5-2.3-2.6-3.7-3.3c-1.4-0.7-3-1-4.7-1c-1.1,0-2.2,0.2-3.3,0.6
			c-1.1,0.4-2,1-2.9,1.9c-0.8,0.8-1.5,1.9-2.1,3.2c-0.5,1.3-0.8,2.9-0.8,4.7c0,1.6,0.2,3,0.7,4.1c0.5,1.2,1.1,2.2,1.9,3.1
			c0.8,0.9,1.8,1.7,2.8,2.4c1.1,0.7,2.2,1.3,3.4,1.9c1.5,0.7,2.9,1.6,4.4,2.5c1.4,0.9,2.8,2.1,3.9,3.3c1.2,1.3,2.1,2.7,2.8,4.4
			C704.5,532.6,704.8,534.6,704.8,536.8z"/>
		<path class="st1" d="M746.7,551.2l-3.4-14h-17.2l-3.6,14h-5.6l14.2-56h7.5l13.8,56H746.7z M734.9,500.2h-0.3l-7.7,32.6h15.7
			L734.9,500.2z"/>
	</g>
</g>
</svg>
